# This file uses centimeters as units for non-parametric coordinates.

mtllib Eyeball_L.mtl
g default
v 0.105508 1.402947 0.072441
v 0.104170 1.405572 0.072441
v 0.102087 1.407656 0.072441
v 0.099461 1.408994 0.072441
v 0.096551 1.409455 0.072441
v 0.093641 1.408994 0.072441
v 0.091015 1.407656 0.072441
v 0.088932 1.405572 0.072441
v 0.087594 1.402947 0.072441
v 0.087133 1.400037 0.072441
v 0.087594 1.397126 0.072441
v 0.088932 1.394501 0.072441
v 0.091015 1.392417 0.072441
v 0.093641 1.391080 0.072441
v 0.096551 1.390618 0.072441
v 0.099461 1.391080 0.072441
v 0.102087 1.392417 0.072441
v 0.104170 1.394501 0.072441
v 0.105508 1.397126 0.072441
v 0.105969 1.400037 0.072441
v 0.114244 1.405785 0.074647
v 0.111602 1.410972 0.074647
v 0.107486 1.415088 0.074647
v 0.102300 1.417730 0.074647
v 0.096551 1.418641 0.074647
v 0.090802 1.417730 0.074647
v 0.085616 1.415088 0.074647
v 0.081500 1.410972 0.074647
v 0.078857 1.405785 0.074647
v 0.077947 1.400037 0.074647
v 0.078857 1.394288 0.074647
v 0.081500 1.389101 0.074647
v 0.085616 1.384986 0.074647
v 0.090802 1.382343 0.074647
v 0.096551 1.381433 0.074647
v 0.102300 1.382343 0.074647
v 0.107486 1.384986 0.074647
v 0.111602 1.389101 0.074647
v 0.114244 1.394288 0.074647
v 0.115155 1.400037 0.074647
v 0.122545 1.408483 0.078262
v 0.118663 1.416102 0.078262
v 0.112616 1.422149 0.078262
v 0.104997 1.426031 0.078262
v 0.096551 1.427369 0.078262
v 0.088105 1.426031 0.078262
v 0.080485 1.422149 0.078262
v 0.074439 1.416102 0.078262
v 0.070556 1.408483 0.078262
v 0.069219 1.400037 0.078262
v 0.070556 1.391590 0.078262
v 0.074439 1.383971 0.078262
v 0.080485 1.377924 0.078262
v 0.088105 1.374042 0.078262
v 0.096551 1.372704 0.078262
v 0.104997 1.374042 0.078262
v 0.112616 1.377924 0.078262
v 0.118663 1.383971 0.078262
v 0.122545 1.391590 0.078262
v 0.123883 1.400037 0.078262
v 0.130206 1.410972 0.083198
v 0.125180 1.420837 0.083198
v 0.117351 1.428665 0.083198
v 0.107486 1.433692 0.083198
v 0.096551 1.435424 0.083198
v 0.085616 1.433692 0.083198
v 0.075751 1.428665 0.083198
v 0.067922 1.420837 0.083198
v 0.062896 1.410972 0.083198
v 0.061164 1.400037 0.083198
v 0.062896 1.389101 0.083198
v 0.067922 1.379237 0.083198
v 0.075751 1.371408 0.083198
v 0.085616 1.366382 0.083198
v 0.096551 1.364650 0.083198
v 0.107486 1.366382 0.083198
v 0.117351 1.371408 0.083198
v 0.125180 1.379237 0.083198
v 0.130206 1.389101 0.083198
v 0.131938 1.400037 0.083198
v 0.137038 1.413192 0.089333
v 0.130991 1.425059 0.089333
v 0.121573 1.434477 0.089333
v 0.109706 1.440524 0.089333
v 0.096551 1.442607 0.089333
v 0.083396 1.440524 0.089333
v 0.071528 1.434477 0.089333
v 0.062110 1.425059 0.089333
v 0.056064 1.413192 0.089333
v 0.053980 1.400037 0.089333
v 0.056064 1.386881 0.089333
v 0.062110 1.375014 0.089333
v 0.071528 1.365596 0.089333
v 0.083396 1.359549 0.089333
v 0.096551 1.357466 0.089333
v 0.109706 1.359549 0.089333
v 0.121573 1.365596 0.089333
v 0.130991 1.375014 0.089333
v 0.137038 1.386881 0.089333
v 0.139122 1.400037 0.089333
v 0.142873 1.415088 0.096517
v 0.135955 1.428665 0.096517
v 0.125180 1.439441 0.096517
v 0.111602 1.446359 0.096517
v 0.096551 1.448743 0.096517
v 0.081500 1.446359 0.096517
v 0.067922 1.439441 0.096517
v 0.057147 1.428665 0.096517
v 0.050229 1.415088 0.096517
v 0.047845 1.400037 0.096517
v 0.050229 1.384986 0.096517
v 0.057147 1.371408 0.096517
v 0.067922 1.360633 0.096517
v 0.081500 1.353714 0.096517
v 0.096551 1.351331 0.096517
v 0.111602 1.353714 0.096517
v 0.125180 1.360633 0.096517
v 0.135955 1.371408 0.096517
v 0.142873 1.384986 0.096517
v 0.145257 1.400037 0.096517
v 0.147568 1.416613 0.104572
v 0.139948 1.431567 0.104572
v 0.128081 1.443434 0.104572
v 0.113127 1.451053 0.104572
v 0.096551 1.453679 0.104572
v 0.079975 1.451053 0.104572
v 0.065021 1.443434 0.104572
v 0.053153 1.431567 0.104572
v 0.045534 1.416613 0.104572
v 0.042909 1.400037 0.104572
v 0.045534 1.383460 0.104572
v 0.053153 1.368506 0.104572
v 0.065021 1.356639 0.104572
v 0.079975 1.349020 0.104572
v 0.096551 1.346395 0.104572
v 0.113127 1.349020 0.104572
v 0.128081 1.356639 0.104572
v 0.139948 1.368506 0.104572
v 0.147568 1.383460 0.104572
v 0.150193 1.400037 0.104572
v 0.151006 1.417730 0.113300
v 0.142873 1.433692 0.113300
v 0.130206 1.446359 0.113300
v 0.114244 1.454492 0.113300
v 0.096551 1.457294 0.113300
v 0.078857 1.454492 0.113300
v 0.062896 1.446359 0.113300
v 0.050229 1.433692 0.113300
v 0.042096 1.417730 0.113300
v 0.039293 1.400037 0.113300
v 0.042096 1.382343 0.113300
v 0.050229 1.366382 0.113300
v 0.062896 1.353714 0.113300
v 0.078857 1.345582 0.113300
v 0.096551 1.342779 0.113300
v 0.114244 1.345582 0.113300
v 0.130206 1.353714 0.113300
v 0.142873 1.366382 0.113300
v 0.151006 1.382343 0.113300
v 0.153808 1.400037 0.113300
v 0.153103 1.418412 0.122486
v 0.144657 1.434988 0.122486
v 0.131502 1.448143 0.122486
v 0.114926 1.456589 0.122486
v 0.096551 1.459499 0.122486
v 0.078176 1.456589 0.122486
v 0.061599 1.448143 0.122486
v 0.048444 1.434988 0.122486
v 0.039998 1.418412 0.122486
v 0.037088 1.400037 0.122486
v 0.039998 1.381662 0.122486
v 0.048444 1.365085 0.122486
v 0.061599 1.351930 0.122486
v 0.078176 1.343484 0.122486
v 0.096551 1.340574 0.122486
v 0.114926 1.343484 0.122486
v 0.131502 1.351930 0.122486
v 0.144657 1.365085 0.122486
v 0.153103 1.381662 0.122486
v 0.156014 1.400037 0.122486
v 0.153808 1.418641 0.131904
v 0.145257 1.435424 0.131904
v 0.131938 1.448743 0.131904
v 0.115155 1.457294 0.131904
v 0.096551 1.460241 0.131904
v 0.077947 1.457294 0.131904
v 0.061164 1.448743 0.131904
v 0.047845 1.435424 0.131904
v 0.039293 1.418641 0.131904
v 0.036347 1.400037 0.131904
v 0.039293 1.381433 0.131904
v 0.047845 1.364650 0.131904
v 0.061164 1.351331 0.131904
v 0.077947 1.342779 0.131904
v 0.096551 1.339832 0.131904
v 0.115155 1.342779 0.131904
v 0.131938 1.351331 0.131904
v 0.145257 1.364650 0.131904
v 0.153808 1.381433 0.131904
v 0.156755 1.400037 0.131904
v 0.153103 1.418412 0.141322
v 0.144657 1.434988 0.141322
v 0.131502 1.448143 0.141322
v 0.114926 1.456589 0.141322
v 0.096551 1.459499 0.141322
v 0.078176 1.456589 0.141322
v 0.061599 1.448143 0.141322
v 0.048444 1.434988 0.141322
v 0.039998 1.418412 0.141322
v 0.037088 1.400037 0.141322
v 0.039998 1.381662 0.141322
v 0.048444 1.365085 0.141322
v 0.061599 1.351930 0.141322
v 0.078176 1.343484 0.141322
v 0.096551 1.340574 0.141322
v 0.114926 1.343484 0.141322
v 0.131502 1.351930 0.141322
v 0.144657 1.365085 0.141322
v 0.153103 1.381662 0.141322
v 0.156014 1.400037 0.141322
v 0.151006 1.417730 0.150508
v 0.142873 1.433692 0.150508
v 0.130206 1.446359 0.150508
v 0.114244 1.454492 0.150508
v 0.096551 1.457294 0.150508
v 0.078857 1.454492 0.150508
v 0.062896 1.446359 0.150508
v 0.050229 1.433692 0.150508
v 0.042096 1.417730 0.150508
v 0.039293 1.400037 0.150508
v 0.042096 1.382343 0.150508
v 0.050229 1.366382 0.150508
v 0.062896 1.353714 0.150508
v 0.078857 1.345582 0.150508
v 0.096551 1.342779 0.150508
v 0.114244 1.345582 0.150508
v 0.130206 1.353714 0.150508
v 0.142873 1.366382 0.150508
v 0.151006 1.382343 0.150508
v 0.153808 1.400037 0.150508
v 0.147568 1.416613 0.159236
v 0.139948 1.431567 0.159236
v 0.128081 1.443434 0.159236
v 0.113127 1.451053 0.159236
v 0.096551 1.453679 0.159236
v 0.079975 1.451053 0.159236
v 0.065021 1.443434 0.159236
v 0.053153 1.431567 0.159236
v 0.045534 1.416613 0.159236
v 0.042909 1.400037 0.159236
v 0.045534 1.383460 0.159236
v 0.053153 1.368506 0.159236
v 0.065021 1.356639 0.159236
v 0.079975 1.349020 0.159236
v 0.096551 1.346395 0.159236
v 0.113127 1.349020 0.159236
v 0.128081 1.356639 0.159236
v 0.139948 1.368506 0.159236
v 0.147568 1.383460 0.159236
v 0.150193 1.400037 0.159236
v 0.142873 1.415088 0.167291
v 0.135955 1.428665 0.167291
v 0.125180 1.439441 0.167291
v 0.111602 1.446359 0.167291
v 0.096551 1.448743 0.167291
v 0.081500 1.446359 0.167291
v 0.067922 1.439441 0.167291
v 0.057147 1.428665 0.167291
v 0.050229 1.415088 0.167291
v 0.047845 1.400037 0.167291
v 0.050229 1.384986 0.167291
v 0.057147 1.371408 0.167291
v 0.067922 1.360633 0.167291
v 0.081500 1.353714 0.167291
v 0.096551 1.351331 0.167291
v 0.111602 1.353714 0.167291
v 0.125180 1.360633 0.167291
v 0.135955 1.371408 0.167291
v 0.142873 1.384986 0.167291
v 0.145257 1.400037 0.167291
v 0.137038 1.413192 0.174475
v 0.130991 1.425059 0.174475
v 0.121573 1.434477 0.174475
v 0.109706 1.440524 0.174475
v 0.096551 1.442607 0.174475
v 0.083396 1.440524 0.174475
v 0.071528 1.434477 0.174475
v 0.062110 1.425059 0.174475
v 0.056064 1.413192 0.174475
v 0.053980 1.400037 0.174475
v 0.056064 1.386881 0.174475
v 0.062110 1.375014 0.174475
v 0.071528 1.365596 0.174475
v 0.083396 1.359549 0.174475
v 0.096551 1.357466 0.174475
v 0.109706 1.359549 0.174475
v 0.121573 1.365596 0.174475
v 0.130991 1.375014 0.174475
v 0.137038 1.386881 0.174475
v 0.139122 1.400037 0.174475
v 0.130206 1.410972 0.180610
v 0.125180 1.420837 0.180610
v 0.117351 1.428665 0.180610
v 0.107486 1.433692 0.180610
v 0.096551 1.435424 0.180610
v 0.085616 1.433692 0.180610
v 0.075751 1.428665 0.180610
v 0.067922 1.420837 0.180610
v 0.062896 1.410972 0.180610
v 0.061164 1.400037 0.180610
v 0.062896 1.389101 0.180610
v 0.067922 1.379237 0.180610
v 0.075751 1.371408 0.180610
v 0.085616 1.366382 0.180610
v 0.096551 1.364650 0.180610
v 0.107486 1.366382 0.180610
v 0.117351 1.371408 0.180610
v 0.125180 1.379237 0.180610
v 0.130206 1.389101 0.180610
v 0.131938 1.400037 0.180610
v 0.122545 1.408483 0.185546
v 0.118663 1.416102 0.185546
v 0.112616 1.422149 0.185546
v 0.104997 1.426031 0.185546
v 0.096551 1.427369 0.185546
v 0.088105 1.426031 0.185546
v 0.080485 1.422149 0.185546
v 0.074439 1.416102 0.185546
v 0.070556 1.408483 0.185546
v 0.069219 1.400037 0.185546
v 0.070556 1.391590 0.185546
v 0.074439 1.383971 0.185546
v 0.080485 1.377924 0.185546
v 0.088105 1.374042 0.185546
v 0.096551 1.372704 0.185546
v 0.104997 1.374042 0.185546
v 0.112616 1.377924 0.185546
v 0.118663 1.383971 0.185546
v 0.122545 1.391590 0.185546
v 0.123883 1.400037 0.185546
v 0.114244 1.405785 0.189162
v 0.111602 1.410972 0.189162
v 0.107486 1.415088 0.189162
v 0.102300 1.417730 0.189162
v 0.096551 1.418641 0.189162
v 0.090802 1.417730 0.189162
v 0.085616 1.415088 0.189162
v 0.081500 1.410972 0.189162
v 0.078857 1.405785 0.189162
v 0.077947 1.400037 0.189162
v 0.078857 1.394288 0.189162
v 0.081500 1.389101 0.189162
v 0.085616 1.384986 0.189162
v 0.090802 1.382343 0.189162
v 0.096551 1.381433 0.189162
v 0.102300 1.382343 0.189162
v 0.107486 1.384986 0.189162
v 0.111602 1.389101 0.189162
v 0.114244 1.394288 0.189162
v 0.115155 1.400037 0.189162
v 0.105508 1.402947 0.191367
v 0.104170 1.405572 0.191367
v 0.102087 1.407656 0.191367
v 0.099461 1.408994 0.191367
v 0.096551 1.409455 0.191367
v 0.093641 1.408994 0.191367
v 0.091015 1.407656 0.191367
v 0.088932 1.405572 0.191367
v 0.087594 1.402947 0.191367
v 0.087133 1.400037 0.191367
v 0.087594 1.397126 0.191367
v 0.088932 1.394501 0.191367
v 0.091015 1.392417 0.191367
v 0.093641 1.391080 0.191367
v 0.096551 1.390618 0.191367
v 0.099461 1.391080 0.191367
v 0.102087 1.392417 0.191367
v 0.104170 1.394501 0.191367
v 0.105508 1.397126 0.191367
v 0.105969 1.400037 0.191367
v 0.096551 1.400037 0.071700
v 0.096551 1.400037 0.192108
vt 0.262524 0.236427
vt 0.257573 0.233419
vt 0.264539 0.216282
vt 0.274445 0.222281
vt 0.251935 0.232089
vt 0.253264 0.213638
vt 0.246161 0.232565
vt 0.241724 0.214607
vt 0.240818 0.234803
vt 0.231048 0.219095
vt 0.236428 0.238582
vt 0.222282 0.226662
vt 0.233420 0.243534
vt 0.216283 0.236568
vt 0.232090 0.249172
vt 0.213639 0.247843
vt 0.232566 0.254945
vt 0.214608 0.259382
vt 0.234804 0.260288
vt 0.219096 0.270058
vt 0.238584 0.264679
vt 0.226663 0.278824
vt 0.243535 0.267686
vt 0.236569 0.284823
vt 0.249173 0.269017
vt 0.247843 0.287468
vt 0.254946 0.268540
vt 0.259383 0.286498
vt 0.260289 0.266302
vt 0.270059 0.282011
vt 0.264680 0.262523
vt 0.278825 0.274444
vt 0.267687 0.257572
vt 0.284824 0.264538
vt 0.269018 0.251934
vt 0.287469 0.253263
vt 0.268541 0.246161
vt 0.286500 0.241723
vt 0.266303 0.240817
vt 0.282012 0.231047
vt 0.271454 0.199117
vt 0.286326 0.208093
vt 0.254537 0.195176
vt 0.237229 0.196656
vt 0.221226 0.203411
vt 0.208094 0.214781
vt 0.199118 0.229653
vt 0.195177 0.246570
vt 0.196657 0.263877
vt 0.203412 0.279880
vt 0.214782 0.293012
vt 0.229653 0.301988
vt 0.246571 0.305929
vt 0.263878 0.304450
vt 0.279881 0.297694
vt 0.293013 0.286324
vt 0.301989 0.271453
vt 0.305930 0.254536
vt 0.304451 0.237228
vt 0.297695 0.221226
vt 0.278325 0.181914
vt 0.298176 0.193855
vt 0.255755 0.176692
vt 0.232676 0.178699
vt 0.211347 0.187741
vt 0.193856 0.202931
vt 0.181915 0.222782
vt 0.176693 0.245352
vt 0.178700 0.268431
vt 0.187742 0.289759
vt 0.202931 0.307250
vt 0.222783 0.319191
vt 0.245352 0.324414
vt 0.268431 0.322406
vt 0.289760 0.313365
vt 0.307251 0.298175
vt 0.319192 0.278324
vt 0.324415 0.255754
vt 0.322407 0.232675
vt 0.313366 0.211346
vt 0.285162 0.164662
vt 0.310009 0.179560
vt 0.256926 0.158172
vt 0.228067 0.160724
vt 0.201409 0.172069
vt 0.179561 0.191097
vt 0.164663 0.215945
vt 0.158172 0.244181
vt 0.160724 0.273040
vt 0.172070 0.299698
vt 0.191098 0.321545
vt 0.215946 0.336443
vt 0.244181 0.342934
vt 0.273040 0.340382
vt 0.299698 0.329037
vt 0.321546 0.310009
vt 0.336444 0.285161
vt 0.342935 0.256926
vt 0.340383 0.228066
vt 0.329038 0.201408
vt 0.291979 0.147348
vt 0.321844 0.165201
vt 0.258060 0.139598
vt 0.223405 0.142709
vt 0.191408 0.156377
vt 0.165201 0.179264
vt 0.147349 0.209128
vt 0.139599 0.243047
vt 0.142710 0.277702
vt 0.156378 0.309698
vt 0.179264 0.335905
vt 0.209128 0.353757
vt 0.243047 0.361507
vt 0.277701 0.358396
vt 0.309698 0.344729
vt 0.335906 0.321843
vt 0.353758 0.291979
vt 0.361508 0.258059
vt 0.358398 0.223405
vt 0.344730 0.191408
vt 0.298798 0.129949
vt 0.333706 0.150760
vt 0.259168 0.120943
vt 0.218695 0.124625
vt 0.181340 0.140633
vt 0.150761 0.167402
vt 0.129949 0.202309
vt 0.120944 0.241939
vt 0.124626 0.282412
vt 0.140634 0.319766
vt 0.167402 0.350346
vt 0.202309 0.371157
vt 0.241938 0.380162
vt 0.282411 0.376481
vt 0.319766 0.360473
vt 0.350346 0.333705
vt 0.371157 0.298798
vt 0.380163 0.259168
vt 0.376482 0.218695
vt 0.360474 0.181340
vt 0.305650 0.112424
vt 0.345638 0.136210
vt 0.260269 0.102159
vt 0.213936 0.106420
vt 0.171189 0.124790
vt 0.136210 0.155470
vt 0.112424 0.195458
vt 0.102159 0.240839
vt 0.106420 0.287170
vt 0.124790 0.329918
vt 0.155470 0.364896
vt 0.195457 0.388682
vt 0.240838 0.398947
vt 0.287169 0.394686
vt 0.329917 0.376317
vt 0.364896 0.345637
vt 0.388682 0.305650
vt 0.398948 0.260269
vt 0.394688 0.213937
vt 0.376318 0.171189
vt 0.312579 0.094698
vt 0.357706 0.121494
vt 0.261382 0.083160
vt 0.209124 0.088007
vt 0.160922 0.108765
vt 0.121493 0.143402
vt 0.094699 0.188529
vt 0.083160 0.239726
vt 0.088007 0.291983
vt 0.108765 0.340185
vt 0.143402 0.379613
vt 0.188528 0.406408
vt 0.239724 0.417946
vt 0.291981 0.413100
vt 0.340184 0.392342
vt 0.379612 0.357706
vt 0.406407 0.312580
vt 0.417947 0.261382
vt 0.413101 0.209125
vt 0.392343 0.160922
vt 0.319659 0.076643
vt 0.370018 0.106510
vt 0.262535 0.063800
vt 0.204238 0.069239
vt 0.150475 0.092425
vt 0.106509 0.131091
vt 0.076643 0.181450
vt 0.063801 0.238573
vt 0.069239 0.296869
vt 0.092425 0.350631
vt 0.131090 0.394597
vt 0.181448 0.424463
vt 0.238571 0.437306
vt 0.296867 0.431868
vt 0.350629 0.408683
vt 0.394596 0.370018
vt 0.424463 0.319660
vt 0.437306 0.262536
vt 0.431869 0.204240
vt 0.408683 0.150477
vt 0.327000 0.058031
vt 0.382751 0.091077
vt 0.263765 0.043831
vt 0.199237 0.049866
vt 0.139733 0.075546
vt 0.091076 0.118357
vt 0.058031 0.174109
vt 0.043831 0.237343
vt 0.049866 0.301870
vt 0.075546 0.361374
vt 0.118356 0.410029
vt 0.174107 0.443075
vt 0.237340 0.457275
vt 0.301867 0.451241
vt 0.361371 0.425562
vt 0.410028 0.382752
vt 0.443074 0.327002
vt 0.457276 0.263768
vt 0.451242 0.199240
vt 0.425563 0.139735
vt 0.334785 0.038467
vt 0.396202 0.074876
vt 0.265124 0.022818
vt 0.194036 0.029462
vt 0.128481 0.057748
vt 0.074875 0.104907
vt 0.038466 0.166323
vt 0.022818 0.235984
vt 0.029462 0.307071
vt 0.057747 0.372625
vt 0.104906 0.426230
vt 0.166320 0.462639
vt 0.235981 0.478288
vt 0.307067 0.471646
vt 0.372622 0.443361
vt 0.426228 0.396203
vt 0.462638 0.334789
vt 0.478289 0.265127
vt 0.471646 0.194040
vt 0.443361 0.128484
vt 0.768689 0.246179
vt 0.791322 0.203796
vt 0.734068 0.279492
vt 0.690846 0.300478
vt 0.643255 0.307079
vt 0.595953 0.298651
vt 0.553571 0.276018
vt 0.520257 0.241397
vt 0.499273 0.198175
vt 0.492671 0.150584
vt 0.501099 0.103283
vt 0.523732 0.060901
vt 0.558353 0.027587
vt 0.601574 0.006602
vt 0.649165 0.000001
vt 0.696467 0.008428
vt 0.738849 0.031061
vt 0.772163 0.065682
vt 0.793148 0.108903
vt 0.799749 0.156494
vt 0.750348 0.232465
vt 0.769641 0.196421
vt 0.720862 0.260783
vt 0.684069 0.278602
vt 0.643569 0.284180
vt 0.603328 0.276970
vt 0.567285 0.257678
vt 0.538967 0.228191
vt 0.521148 0.191398
vt 0.515570 0.150899
vt 0.522780 0.110658
vt 0.542072 0.074615
vt 0.571558 0.046297
vt 0.608352 0.028477
vt 0.648851 0.022900
vt 0.689092 0.030109
vt 0.725135 0.049402
vt 0.753453 0.078888
vt 0.771273 0.115681
vt 0.776851 0.156181
vt 0.732422 0.219028
vt 0.748440 0.189182
vt 0.707966 0.242464
vt 0.677464 0.257195
vt 0.643903 0.261780
vt 0.610568 0.255769
vt 0.580722 0.239752
vt 0.557286 0.215295
vt 0.542555 0.184794
vt 0.537970 0.151233
vt 0.543981 0.117898
vt 0.559998 0.088052
vt 0.584455 0.064616
vt 0.614956 0.049885
vt 0.648517 0.045300
vt 0.681852 0.051310
vt 0.711698 0.067328
vt 0.735134 0.091784
vt 0.749865 0.122286
vt 0.754450 0.155846
vt 0.714815 0.205781
vt 0.727600 0.182024
vt 0.695314 0.224424
vt 0.671006 0.236129
vt 0.644271 0.239749
vt 0.617726 0.234930
vt 0.593969 0.222144
vt 0.575326 0.202643
vt 0.563622 0.178335
vt 0.560002 0.151600
vt 0.564820 0.125056
vt 0.577606 0.101299
vt 0.597107 0.082656
vt 0.621415 0.070951
vt 0.648149 0.067332
vt 0.674694 0.072150
vt 0.698451 0.084935
vt 0.717094 0.104436
vt 0.728799 0.128744
vt 0.732419 0.155479
vt 0.697451 0.192658
vt 0.707031 0.174909
vt 0.682855 0.206578
vt 0.664672 0.215306
vt 0.644681 0.217987
vt 0.624841 0.214361
vt 0.607092 0.204780
vt 0.593172 0.190184
vt 0.584445 0.172001
vt 0.581763 0.152011
vt 0.585389 0.132170
vt 0.594970 0.114422
vt 0.609566 0.100502
vt 0.627749 0.091774
vt 0.647739 0.089092
vt 0.667580 0.092719
vt 0.685328 0.102299
vt 0.699248 0.116895
vt 0.707976 0.135078
vt 0.710658 0.155069
vt 0.680268 0.179606
vt 0.686656 0.167806
vt 0.670546 0.188855
vt 0.658442 0.194647
vt 0.645141 0.196415
vt 0.631944 0.193986
vt 0.620144 0.187598
vt 0.610895 0.177876
vt 0.605103 0.165772
vt 0.603336 0.152470
vt 0.605764 0.139274
vt 0.612152 0.127474
vt 0.621874 0.118225
vt 0.633978 0.112433
vt 0.647280 0.110665
vt 0.660476 0.113094
vt 0.672277 0.119482
vt 0.681525 0.129204
vt 0.687317 0.141308
vt 0.689085 0.154609
vt 0.663210 0.166581
vt 0.666408 0.160689
vt 0.658348 0.171196
vt 0.652298 0.174083
vt 0.645652 0.174958
vt 0.639061 0.173738
vt 0.633170 0.170539
vt 0.628555 0.165678
vt 0.625668 0.159628
vt 0.624792 0.152982
vt 0.626013 0.146390
vt 0.629211 0.140499
vt 0.634073 0.135884
vt 0.640123 0.132998
vt 0.646768 0.132122
vt 0.653360 0.133343
vt 0.659251 0.136540
vt 0.663866 0.141402
vt 0.666753 0.147452
vt 0.667628 0.154098
vt 0.250554 0.250553
vt 0.646210 0.153540
vt 0.462742 0.116338
vt 0.410880 0.057337
vt 0.493831 0.188478
vt 0.501106 0.266694
vt 0.483855 0.343329
vt 0.443767 0.410883
vt 0.384767 0.462742
vt 0.312629 0.493830
vt 0.234415 0.501106
vt 0.157781 0.483857
vt 0.090228 0.443771
vt 0.038368 0.384771
vt 0.007277 0.312634
vt 0.000000 0.234419
vt 0.017248 0.157784
vt 0.057335 0.090230
vt 0.116334 0.038368
vt 0.188473 0.007277
vt 0.266689 0.000000
vt 0.343325 0.017249
vn 0.190553 0.061913 -0.979723
vn 0.162093 0.117768 -0.979723
vn 0.269871 0.196073 -0.942722
vn 0.317254 0.103080 -0.942722
vn 0.117770 0.162091 -0.979723
vn 0.196074 0.269871 -0.942722
vn 0.061914 0.190552 -0.979723
vn 0.103083 0.317255 -0.942721
vn 0.000000 0.200358 -0.979723
vn 0.000000 0.333581 -0.942721
vn -0.061914 0.190552 -0.979723
vn -0.103082 0.317255 -0.942721
vn -0.117770 0.162091 -0.979723
vn -0.196075 0.269870 -0.942722
vn -0.162093 0.117767 -0.979723
vn -0.269871 0.196073 -0.942722
vn -0.190552 0.061915 -0.979723
vn -0.317252 0.103081 -0.942722
vn -0.200358 0.000000 -0.979723
vn -0.333578 -0.000000 -0.942722
vn -0.190552 -0.061914 -0.979723
vn -0.317252 -0.103082 -0.942722
vn -0.162093 -0.117768 -0.979723
vn -0.269872 -0.196073 -0.942722
vn -0.117767 -0.162093 -0.979723
vn -0.196073 -0.269870 -0.942722
vn -0.061915 -0.190552 -0.979723
vn -0.103080 -0.317252 -0.942722
vn 0.000000 -0.200360 -0.979722
vn 0.000000 -0.333578 -0.942723
vn 0.061915 -0.190551 -0.979723
vn 0.103081 -0.317252 -0.942722
vn 0.117767 -0.162092 -0.979723
vn 0.196073 -0.269870 -0.942722
vn 0.162092 -0.117768 -0.979723
vn 0.269872 -0.196074 -0.942722
vn 0.190552 -0.061915 -0.979723
vn 0.317253 -0.103082 -0.942722
vn 0.200358 -0.000001 -0.979723
vn 0.333580 -0.000000 -0.942722
vn 0.380847 0.276702 -0.882265
vn 0.447713 0.145469 -0.882265
vn 0.276702 0.380848 -0.882265
vn 0.145471 0.447712 -0.882265
vn -0.000001 0.470754 -0.882264
vn -0.145471 0.447714 -0.882264
vn -0.276702 0.380848 -0.882264
vn -0.380848 0.276702 -0.882265
vn -0.447713 0.145471 -0.882265
vn -0.470753 -0.000000 -0.882265
vn -0.447713 -0.145472 -0.882265
vn -0.380848 -0.276702 -0.882265
vn -0.276703 -0.380848 -0.882264
vn -0.145469 -0.447716 -0.882264
vn 0.000000 -0.470757 -0.882263
vn 0.145470 -0.447716 -0.882264
vn 0.276702 -0.380849 -0.882264
vn 0.380847 -0.276702 -0.882265
vn 0.447713 -0.145471 -0.882265
vn 0.470754 -0.000000 -0.882265
vn 0.485138 0.352475 -0.800252
vn 0.570314 0.185304 -0.800252
vn 0.352475 0.485139 -0.800251
vn 0.185307 0.570314 -0.800252
vn -0.000002 0.599663 -0.800252
vn -0.185306 0.570314 -0.800252
vn -0.352474 0.485139 -0.800252
vn -0.485137 0.352474 -0.800252
vn -0.570313 0.185306 -0.800253
vn -0.599664 -0.000000 -0.800252
vn -0.570314 -0.185307 -0.800252
vn -0.485138 -0.352473 -0.800252
vn -0.352473 -0.485138 -0.800253
vn -0.185304 -0.570314 -0.800253
vn 0.000000 -0.599663 -0.800252
vn 0.185305 -0.570314 -0.800252
vn 0.352472 -0.485138 -0.800253
vn 0.485138 -0.352474 -0.800252
vn 0.570314 -0.185305 -0.800252
vn 0.599664 -0.000001 -0.800252
vn 0.578712 0.420460 -0.698789
vn 0.680318 0.221049 -0.698788
vn 0.420460 0.578713 -0.698789
vn 0.221050 0.680318 -0.698788
vn -0.000001 0.715328 -0.698789
vn -0.221049 0.680317 -0.698789
vn -0.420460 0.578713 -0.698788
vn -0.578712 0.420461 -0.698788
vn -0.680318 0.221050 -0.698788
vn -0.715329 -0.000000 -0.698788
vn -0.680318 -0.221049 -0.698788
vn -0.578713 -0.420460 -0.698787
vn -0.420460 -0.578714 -0.698788
vn -0.221046 -0.680317 -0.698790
vn -0.000000 -0.715327 -0.698790
vn 0.221046 -0.680317 -0.698790
vn 0.420459 -0.578713 -0.698788
vn 0.578713 -0.420460 -0.698788
vn 0.680318 -0.221048 -0.698788
vn 0.715329 -0.000001 -0.698788
vn 0.658808 0.478652 -0.580400
vn 0.774476 0.251640 -0.580401
vn 0.478652 0.658808 -0.580400
vn 0.251645 0.774474 -0.580401
vn 0.000000 0.814330 -0.580402
vn -0.251645 0.774473 -0.580401
vn -0.478651 0.658808 -0.580400
vn -0.658807 0.478653 -0.580400
vn -0.774476 0.251641 -0.580400
vn -0.814331 0.000000 -0.580400
vn -0.774475 -0.251642 -0.580401
vn -0.658807 -0.478652 -0.580401
vn -0.478653 -0.658808 -0.580400
vn -0.251641 -0.774477 -0.580398
vn 0.000000 -0.814334 -0.580396
vn 0.251642 -0.774477 -0.580397
vn 0.478653 -0.658808 -0.580400
vn 0.658807 -0.478651 -0.580402
vn 0.774474 -0.251641 -0.580403
vn 0.814331 -0.000001 -0.580401
vn 0.723289 0.525503 -0.447995
vn 0.850279 0.276270 -0.447995
vn 0.525501 0.723291 -0.447994
vn 0.276275 0.850278 -0.447995
vn -0.000001 0.894037 -0.447994
vn -0.276275 0.850279 -0.447993
vn -0.525502 0.723291 -0.447993
vn -0.723289 0.525503 -0.447995
vn -0.850279 0.276272 -0.447995
vn -0.894036 0.000000 -0.447994
vn -0.850279 -0.276273 -0.447994
vn -0.723289 -0.525504 -0.447994
vn -0.525501 -0.723291 -0.447994
vn -0.276270 -0.850281 -0.447993
vn 0.000000 -0.894037 -0.447993
vn 0.276270 -0.850281 -0.447993
vn 0.525501 -0.723292 -0.447993
vn 0.723290 -0.525504 -0.447992
vn 0.850280 -0.276273 -0.447993
vn 0.894037 -0.000000 -0.447994
vn 0.770522 0.559820 -0.304792
vn 0.905805 0.294313 -0.304789
vn 0.559817 0.770524 -0.304792
vn 0.294316 0.905804 -0.304789
vn -0.000002 0.952420 -0.304789
vn -0.294316 0.905804 -0.304790
vn -0.559816 0.770524 -0.304793
vn -0.770522 0.559818 -0.304793
vn -0.905805 0.294314 -0.304790
vn -0.952420 0.000000 -0.304789
vn -0.905805 -0.294314 -0.304789
vn -0.770525 -0.559818 -0.304788
vn -0.559816 -0.770526 -0.304787
vn -0.294313 -0.905806 -0.304788
vn 0.000000 -0.952419 -0.304791
vn 0.294314 -0.905806 -0.304788
vn 0.559818 -0.770526 -0.304785
vn 0.770525 -0.559819 -0.304785
vn 0.905806 -0.294314 -0.304786
vn 0.952420 -0.000001 -0.304787
vn 0.799333 0.580753 -0.154248
vn 0.939675 0.305317 -0.154247
vn 0.580749 0.799336 -0.154250
vn 0.305319 0.939674 -0.154248
vn -0.000001 0.988032 -0.154247
vn -0.305319 0.939674 -0.154251
vn -0.580749 0.799335 -0.154253
vn -0.799333 0.580753 -0.154249
vn -0.939675 0.305318 -0.154248
vn -0.988032 -0.000000 -0.154249
vn -0.939674 -0.305320 -0.154248
vn -0.799334 -0.580752 -0.154246
vn -0.580750 -0.799336 -0.154247
vn -0.305320 -0.939674 -0.154250
vn 0.000000 -0.988032 -0.154252
vn 0.305321 -0.939674 -0.154250
vn 0.580751 -0.799335 -0.154247
vn 0.799334 -0.580752 -0.154247
vn 0.939674 -0.305320 -0.154248
vn 0.988032 -0.000001 -0.154248
vn 0.809018 0.587783 0.000000
vn 0.951057 0.309014 0.000000
vn 0.587783 0.809019 0.000000
vn 0.309016 0.951057 0.000000
vn 0.000000 1.000000 0.000000
vn -0.309016 0.951057 0.000000
vn -0.587783 0.809019 0.000000
vn -0.809019 0.587783 0.000000
vn -0.951057 0.309016 0.000000
vn -1.000000 0.000000 0.000000
vn -0.951056 -0.309017 0.000000
vn -0.809018 -0.587784 0.000000
vn -0.587785 -0.809017 -0.000000
vn -0.309018 -0.951056 -0.000000
vn 0.000000 -1.000000 0.000000
vn 0.309019 -0.951056 -0.000000
vn 0.587786 -0.809017 -0.000000
vn 0.809017 -0.587785 0.000000
vn 0.951056 -0.309017 0.000000
vn 1.000000 -0.000001 0.000000
vn 0.799333 0.580753 0.154248
vn 0.939675 0.305317 0.154247
vn 0.580749 0.799336 0.154250
vn 0.305319 0.939674 0.154248
vn -0.000001 0.988032 0.154247
vn -0.305319 0.939674 0.154251
vn -0.580749 0.799335 0.154253
vn -0.799333 0.580753 0.154249
vn -0.939675 0.305318 0.154247
vn -0.988032 0.000000 0.154249
vn -0.939674 -0.305320 0.154247
vn -0.799334 -0.580753 0.154246
vn -0.580750 -0.799336 0.154247
vn -0.305320 -0.939674 0.154250
vn 0.000000 -0.988032 0.154252
vn 0.305320 -0.939674 0.154249
vn 0.580751 -0.799335 0.154247
vn 0.799334 -0.580752 0.154246
vn 0.939674 -0.305320 0.154248
vn 0.988032 -0.000001 0.154248
vn 0.770522 0.559820 0.304792
vn 0.905805 0.294313 0.304789
vn 0.559817 0.770524 0.304792
vn 0.294317 0.905804 0.304789
vn -0.000002 0.952420 0.304788
vn -0.294316 0.905804 0.304789
vn -0.559816 0.770524 0.304792
vn -0.770522 0.559819 0.304793
vn -0.905805 0.294314 0.304790
vn -0.952420 0.000000 0.304789
vn -0.905806 -0.294314 0.304788
vn -0.770525 -0.559818 0.304788
vn -0.559817 -0.770526 0.304787
vn -0.294313 -0.905806 0.304788
vn -0.000000 -0.952420 0.304790
vn 0.294314 -0.905806 0.304787
vn 0.559818 -0.770526 0.304785
vn 0.770525 -0.559819 0.304785
vn 0.905806 -0.294314 0.304785
vn 0.952421 -0.000001 0.304787
vn 0.723290 0.525504 0.447992
vn 0.850281 0.276271 0.447993
vn 0.525502 0.723292 0.447992
vn 0.276275 0.850279 0.447993
vn -0.000001 0.894038 0.447992
vn -0.276276 0.850280 0.447990
vn -0.525503 0.723292 0.447991
vn -0.723290 0.525504 0.447992
vn -0.850280 0.276272 0.447993
vn -0.894038 -0.000000 0.447992
vn -0.850280 -0.276274 0.447991
vn -0.723291 -0.525504 0.447991
vn -0.525502 -0.723292 0.447991
vn -0.276270 -0.850282 0.447991
vn -0.000000 -0.894038 0.447991
vn 0.276270 -0.850282 0.447991
vn 0.525502 -0.723293 0.447990
vn 0.723291 -0.525505 0.447989
vn 0.850281 -0.276273 0.447990
vn 0.894038 -0.000000 0.447992
vn 0.658806 0.478651 0.580403
vn 0.774474 0.251639 0.580403
vn 0.478651 0.658807 0.580402
vn 0.251645 0.774472 0.580403
vn 0.000000 0.814328 0.580405
vn -0.251644 0.774472 0.580403
vn -0.478651 0.658807 0.580402
vn -0.658806 0.478652 0.580402
vn -0.774474 0.251641 0.580402
vn -0.814330 -0.000000 0.580402
vn -0.774473 -0.251642 0.580403
vn -0.658806 -0.478651 0.580403
vn -0.478652 -0.658807 0.580402
vn -0.251641 -0.774476 0.580400
vn 0.000000 -0.814333 0.580398
vn 0.251641 -0.774476 0.580400
vn 0.478652 -0.658807 0.580402
vn 0.658806 -0.478650 0.580404
vn 0.774472 -0.251640 0.580405
vn 0.814329 -0.000001 0.580403
vn 0.578711 0.420460 0.698790
vn 0.680317 0.221049 0.698789
vn 0.420459 0.578712 0.698789
vn 0.221050 0.680317 0.698788
vn -0.000001 0.715327 0.698790
vn -0.221049 0.680317 0.698789
vn -0.420459 0.578712 0.698789
vn -0.578712 0.420460 0.698789
vn -0.680317 0.221050 0.698789
vn -0.715328 -0.000000 0.698789
vn -0.680317 -0.221049 0.698789
vn -0.578713 -0.420460 0.698788
vn -0.420459 -0.578713 0.698788
vn -0.221046 -0.680317 0.698790
vn 0.000000 -0.715326 0.698791
vn 0.221046 -0.680316 0.698791
vn 0.420459 -0.578713 0.698789
vn 0.578712 -0.420459 0.698789
vn 0.680317 -0.221048 0.698789
vn 0.715328 -0.000001 0.698789
vn 0.485139 0.352475 0.800251
vn 0.570315 0.185305 0.800252
vn 0.352475 0.485139 0.800251
vn 0.185307 0.570316 0.800251
vn -0.000002 0.599664 0.800252
vn -0.185307 0.570315 0.800251
vn -0.352474 0.485139 0.800251
vn -0.485138 0.352475 0.800251
vn -0.570315 0.185306 0.800252
vn -0.599665 -0.000000 0.800251
vn -0.570315 -0.185307 0.800251
vn -0.485139 -0.352474 0.800251
vn -0.352473 -0.485139 0.800252
vn -0.185304 -0.570315 0.800252
vn 0.000000 -0.599664 0.800252
vn 0.185305 -0.570315 0.800252
vn 0.352473 -0.485139 0.800252
vn 0.485139 -0.352474 0.800251
vn 0.570316 -0.185306 0.800251
vn 0.599665 -0.000001 0.800251
vn 0.380843 0.276699 0.882268
vn 0.447708 0.145467 0.882268
vn 0.276699 0.380843 0.882268
vn 0.145469 0.447707 0.882268
vn -0.000001 0.470749 0.882267
vn -0.145469 0.447709 0.882267
vn -0.276699 0.380844 0.882267
vn -0.380843 0.276699 0.882268
vn -0.447708 0.145469 0.882268
vn -0.470748 -0.000000 0.882268
vn -0.447708 -0.145470 0.882268
vn -0.380843 -0.276698 0.882268
vn -0.276699 -0.380844 0.882267
vn -0.145468 -0.447711 0.882266
vn 0.000000 -0.470751 0.882266
vn 0.145468 -0.447711 0.882267
vn 0.276699 -0.380844 0.882267
vn 0.380843 -0.276698 0.882268
vn 0.447708 -0.145469 0.882268
vn 0.470748 -0.000001 0.882268
vn 0.269871 0.196074 0.942722
vn 0.317254 0.103080 0.942722
vn 0.196074 0.269871 0.942722
vn 0.103083 0.317255 0.942721
vn 0.000000 0.333581 0.942721
vn -0.103082 0.317255 0.942721
vn -0.196075 0.269870 0.942722
vn -0.269872 0.196073 0.942722
vn -0.317252 0.103081 0.942722
vn -0.333579 0.000000 0.942722
vn -0.317252 -0.103082 0.942722
vn -0.269872 -0.196073 0.942722
vn -0.196073 -0.269870 0.942722
vn -0.103080 -0.317253 0.942722
vn 0.000000 -0.333578 0.942723
vn 0.103081 -0.317252 0.942722
vn 0.196073 -0.269871 0.942722
vn 0.269872 -0.196073 0.942722
vn 0.317254 -0.103082 0.942722
vn 0.333580 -0.000001 0.942722
vn 0.162096 0.117770 0.979722
vn 0.190556 0.061914 0.979722
vn 0.117772 0.162094 0.979722
vn 0.061916 0.190555 0.979722
vn 0.000000 0.200361 0.979722
vn -0.061915 0.190555 0.979722
vn -0.117772 0.162093 0.979722
vn -0.162095 0.117769 0.979722
vn -0.190555 0.061916 0.979722
vn -0.200362 0.000000 0.979722
vn -0.190555 -0.061916 0.979722
vn -0.162095 -0.117770 0.979722
vn -0.117769 -0.162095 0.979722
vn -0.061916 -0.190555 0.979722
vn 0.000000 -0.200364 0.979722
vn 0.061916 -0.190555 0.979722
vn 0.117769 -0.162096 0.979722
vn 0.162095 -0.117770 0.979722
vn 0.190556 -0.061915 0.979722
vn 0.200362 -0.000001 0.979722
vn 0.000000 0.000000 -1.000000
vn 0.000000 0.000000 1.000000
s 1
g Eyeball_L
usemtl initialShadingGroup
f 1/1/1 2/2/2 22/3/3 21/4/4
f 2/2/2 3/5/5 23/6/6 22/3/3
f 3/5/5 4/7/7 24/8/8 23/6/6
f 4/7/7 5/9/9 25/10/10 24/8/8
f 5/9/9 6/11/11 26/12/12 25/10/10
f 6/11/11 7/13/13 27/14/14 26/12/12
f 7/13/13 8/15/15 28/16/16 27/14/14
f 8/15/15 9/17/17 29/18/18 28/16/16
f 9/17/17 10/19/19 30/20/20 29/18/18
f 10/19/19 11/21/21 31/22/22 30/20/20
f 11/21/21 12/23/23 32/24/24 31/22/22
f 12/23/23 13/25/25 33/26/26 32/24/24
f 13/25/25 14/27/27 34/28/28 33/26/26
f 14/27/27 15/29/29 35/30/30 34/28/28
f 15/29/29 16/31/31 36/32/32 35/30/30
f 16/31/31 17/33/33 37/34/34 36/32/32
f 17/33/33 18/35/35 38/36/36 37/34/34
f 18/35/35 19/37/37 39/38/38 38/36/36
f 19/37/37 20/39/39 40/40/40 39/38/38
f 20/39/39 1/1/1 21/4/4 40/40/40
f 21/4/4 22/3/3 42/41/41 41/42/42
f 22/3/3 23/6/6 43/43/43 42/41/41
f 23/6/6 24/8/8 44/44/44 43/43/43
f 24/8/8 25/10/10 45/45/45 44/44/44
f 25/10/10 26/12/12 46/46/46 45/45/45
f 26/12/12 27/14/14 47/47/47 46/46/46
f 27/14/14 28/16/16 48/48/48 47/47/47
f 28/16/16 29/18/18 49/49/49 48/48/48
f 29/18/18 30/20/20 50/50/50 49/49/49
f 30/20/20 31/22/22 51/51/51 50/50/50
f 31/22/22 32/24/24 52/52/52 51/51/51
f 32/24/24 33/26/26 53/53/53 52/52/52
f 33/26/26 34/28/28 54/54/54 53/53/53
f 34/28/28 35/30/30 55/55/55 54/54/54
f 35/30/30 36/32/32 56/56/56 55/55/55
f 36/32/32 37/34/34 57/57/57 56/56/56
f 37/34/34 38/36/36 58/58/58 57/57/57
f 38/36/36 39/38/38 59/59/59 58/58/58
f 39/38/38 40/40/40 60/60/60 59/59/59
f 40/40/40 21/4/4 41/42/42 60/60/60
f 41/42/42 42/41/41 62/61/61 61/62/62
f 42/41/41 43/43/43 63/63/63 62/61/61
f 43/43/43 44/44/44 64/64/64 63/63/63
f 44/44/44 45/45/45 65/65/65 64/64/64
f 45/45/45 46/46/46 66/66/66 65/65/65
f 46/46/46 47/47/47 67/67/67 66/66/66
f 47/47/47 48/48/48 68/68/68 67/67/67
f 48/48/48 49/49/49 69/69/69 68/68/68
f 49/49/49 50/50/50 70/70/70 69/69/69
f 50/50/50 51/51/51 71/71/71 70/70/70
f 51/51/51 52/52/52 72/72/72 71/71/71
f 52/52/52 53/53/53 73/73/73 72/72/72
f 53/53/53 54/54/54 74/74/74 73/73/73
f 54/54/54 55/55/55 75/75/75 74/74/74
f 55/55/55 56/56/56 76/76/76 75/75/75
f 56/56/56 57/57/57 77/77/77 76/76/76
f 57/57/57 58/58/58 78/78/78 77/77/77
f 58/58/58 59/59/59 79/79/79 78/78/78
f 59/59/59 60/60/60 80/80/80 79/79/79
f 60/60/60 41/42/42 61/62/62 80/80/80
f 61/62/62 62/61/61 82/81/81 81/82/82
f 62/61/61 63/63/63 83/83/83 82/81/81
f 63/63/63 64/64/64 84/84/84 83/83/83
f 64/64/64 65/65/65 85/85/85 84/84/84
f 65/65/65 66/66/66 86/86/86 85/85/85
f 66/66/66 67/67/67 87/87/87 86/86/86
f 67/67/67 68/68/68 88/88/88 87/87/87
f 68/68/68 69/69/69 89/89/89 88/88/88
f 69/69/69 70/70/70 90/90/90 89/89/89
f 70/70/70 71/71/71 91/91/91 90/90/90
f 71/71/71 72/72/72 92/92/92 91/91/91
f 72/72/72 73/73/73 93/93/93 92/92/92
f 73/73/73 74/74/74 94/94/94 93/93/93
f 74/74/74 75/75/75 95/95/95 94/94/94
f 75/75/75 76/76/76 96/96/96 95/95/95
f 76/76/76 77/77/77 97/97/97 96/96/96
f 77/77/77 78/78/78 98/98/98 97/97/97
f 78/78/78 79/79/79 99/99/99 98/98/98
f 79/79/79 80/80/80 100/100/100 99/99/99
f 80/80/80 61/62/62 81/82/82 100/100/100
f 81/82/82 82/81/81 102/101/101 101/102/102
f 82/81/81 83/83/83 103/103/103 102/101/101
f 83/83/83 84/84/84 104/104/104 103/103/103
f 84/84/84 85/85/85 105/105/105 104/104/104
f 85/85/85 86/86/86 106/106/106 105/105/105
f 86/86/86 87/87/87 107/107/107 106/106/106
f 87/87/87 88/88/88 108/108/108 107/107/107
f 88/88/88 89/89/89 109/109/109 108/108/108
f 89/89/89 90/90/90 110/110/110 109/109/109
f 90/90/90 91/91/91 111/111/111 110/110/110
f 91/91/91 92/92/92 112/112/112 111/111/111
f 92/92/92 93/93/93 113/113/113 112/112/112
f 93/93/93 94/94/94 114/114/114 113/113/113
f 94/94/94 95/95/95 115/115/115 114/114/114
f 95/95/95 96/96/96 116/116/116 115/115/115
f 96/96/96 97/97/97 117/117/117 116/116/116
f 97/97/97 98/98/98 118/118/118 117/117/117
f 98/98/98 99/99/99 119/119/119 118/118/118
f 99/99/99 100/100/100 120/120/120 119/119/119
f 100/100/100 81/82/82 101/102/102 120/120/120
f 101/102/102 102/101/101 122/121/121 121/122/122
f 102/101/101 103/103/103 123/123/123 122/121/121
f 103/103/103 104/104/104 124/124/124 123/123/123
f 104/104/104 105/105/105 125/125/125 124/124/124
f 105/105/105 106/106/106 126/126/126 125/125/125
f 106/106/106 107/107/107 127/127/127 126/126/126
f 107/107/107 108/108/108 128/128/128 127/127/127
f 108/108/108 109/109/109 129/129/129 128/128/128
f 109/109/109 110/110/110 130/130/130 129/129/129
f 110/110/110 111/111/111 131/131/131 130/130/130
f 111/111/111 112/112/112 132/132/132 131/131/131
f 112/112/112 113/113/113 133/133/133 132/132/132
f 113/113/113 114/114/114 134/134/134 133/133/133
f 114/114/114 115/115/115 135/135/135 134/134/134
f 115/115/115 116/116/116 136/136/136 135/135/135
f 116/116/116 117/117/117 137/137/137 136/136/136
f 117/117/117 118/118/118 138/138/138 137/137/137
f 118/118/118 119/119/119 139/139/139 138/138/138
f 119/119/119 120/120/120 140/140/140 139/139/139
f 120/120/120 101/102/102 121/122/122 140/140/140
f 121/122/122 122/121/121 142/141/141 141/142/142
f 122/121/121 123/123/123 143/143/143 142/141/141
f 123/123/123 124/124/124 144/144/144 143/143/143
f 124/124/124 125/125/125 145/145/145 144/144/144
f 125/125/125 126/126/126 146/146/146 145/145/145
f 126/126/126 127/127/127 147/147/147 146/146/146
f 127/127/127 128/128/128 148/148/148 147/147/147
f 128/128/128 129/129/129 149/149/149 148/148/148
f 129/129/129 130/130/130 150/150/150 149/149/149
f 130/130/130 131/131/131 151/151/151 150/150/150
f 131/131/131 132/132/132 152/152/152 151/151/151
f 132/132/132 133/133/133 153/153/153 152/152/152
f 133/133/133 134/134/134 154/154/154 153/153/153
f 134/134/134 135/135/135 155/155/155 154/154/154
f 135/135/135 136/136/136 156/156/156 155/155/155
f 136/136/136 137/137/137 157/157/157 156/156/156
f 137/137/137 138/138/138 158/158/158 157/157/157
f 138/138/138 139/139/139 159/159/159 158/158/158
f 139/139/139 140/140/140 160/160/160 159/159/159
f 140/140/140 121/122/122 141/142/142 160/160/160
f 141/142/142 142/141/141 162/161/161 161/162/162
f 142/141/141 143/143/143 163/163/163 162/161/161
f 143/143/143 144/144/144 164/164/164 163/163/163
f 144/144/144 145/145/145 165/165/165 164/164/164
f 145/145/145 146/146/146 166/166/166 165/165/165
f 146/146/146 147/147/147 167/167/167 166/166/166
f 147/147/147 148/148/148 168/168/168 167/167/167
f 148/148/148 149/149/149 169/169/169 168/168/168
f 149/149/149 150/150/150 170/170/170 169/169/169
f 150/150/150 151/151/151 171/171/171 170/170/170
f 151/151/151 152/152/152 172/172/172 171/171/171
f 152/152/152 153/153/153 173/173/173 172/172/172
f 153/153/153 154/154/154 174/174/174 173/173/173
f 154/154/154 155/155/155 175/175/175 174/174/174
f 155/155/155 156/156/156 176/176/176 175/175/175
f 156/156/156 157/157/157 177/177/177 176/176/176
f 157/157/157 158/158/158 178/178/178 177/177/177
f 158/158/158 159/159/159 179/179/179 178/178/178
f 159/159/159 160/160/160 180/180/180 179/179/179
f 160/160/160 141/142/142 161/162/162 180/180/180
f 161/162/162 162/161/161 182/181/181 181/182/182
f 162/161/161 163/163/163 183/183/183 182/181/181
f 163/163/163 164/164/164 184/184/184 183/183/183
f 164/164/164 165/165/165 185/185/185 184/184/184
f 165/165/165 166/166/166 186/186/186 185/185/185
f 166/166/166 167/167/167 187/187/187 186/186/186
f 167/167/167 168/168/168 188/188/188 187/187/187
f 168/168/168 169/169/169 189/189/189 188/188/188
f 169/169/169 170/170/170 190/190/190 189/189/189
f 170/170/170 171/171/171 191/191/191 190/190/190
f 171/171/171 172/172/172 192/192/192 191/191/191
f 172/172/172 173/173/173 193/193/193 192/192/192
f 173/173/173 174/174/174 194/194/194 193/193/193
f 174/174/174 175/175/175 195/195/195 194/194/194
f 175/175/175 176/176/176 196/196/196 195/195/195
f 176/176/176 177/177/177 197/197/197 196/196/196
f 177/177/177 178/178/178 198/198/198 197/197/197
f 178/178/178 179/179/179 199/199/199 198/198/198
f 179/179/179 180/180/180 200/200/200 199/199/199
f 180/180/180 161/162/162 181/182/182 200/200/200
f 181/182/182 182/181/181 202/201/201 201/202/202
f 182/181/181 183/183/183 203/203/203 202/201/201
f 183/183/183 184/184/184 204/204/204 203/203/203
f 184/184/184 185/185/185 205/205/205 204/204/204
f 185/185/185 186/186/186 206/206/206 205/205/205
f 186/186/186 187/187/187 207/207/207 206/206/206
f 187/187/187 188/188/188 208/208/208 207/207/207
f 188/188/188 189/189/189 209/209/209 208/208/208
f 189/189/189 190/190/190 210/210/210 209/209/209
f 190/190/190 191/191/191 211/211/211 210/210/210
f 191/191/191 192/192/192 212/212/212 211/211/211
f 192/192/192 193/193/193 213/213/213 212/212/212
f 193/193/193 194/194/194 214/214/214 213/213/213
f 194/194/194 195/195/195 215/215/215 214/214/214
f 195/195/195 196/196/196 216/216/216 215/215/215
f 196/196/196 197/197/197 217/217/217 216/216/216
f 197/197/197 198/198/198 218/218/218 217/217/217
f 198/198/198 199/199/199 219/219/219 218/218/218
f 199/199/199 200/200/200 220/220/220 219/219/219
f 200/200/200 181/182/182 201/202/202 220/220/220
f 201/202/202 202/201/201 222/221/221 221/222/222
f 202/201/201 203/203/203 223/223/223 222/221/221
f 203/203/203 204/204/204 224/224/224 223/223/223
f 204/204/204 205/205/205 225/225/225 224/224/224
f 205/205/205 206/206/206 226/226/226 225/225/225
f 206/206/206 207/207/207 227/227/227 226/226/226
f 207/207/207 208/208/208 228/228/228 227/227/227
f 208/208/208 209/209/209 229/229/229 228/228/228
f 209/209/209 210/210/210 230/230/230 229/229/229
f 210/210/210 211/211/211 231/231/231 230/230/230
f 211/211/211 212/212/212 232/232/232 231/231/231
f 212/212/212 213/213/213 233/233/233 232/232/232
f 213/213/213 214/214/214 234/234/234 233/233/233
f 214/214/214 215/215/215 235/235/235 234/234/234
f 215/215/215 216/216/216 236/236/236 235/235/235
f 216/216/216 217/217/217 237/237/237 236/236/236
f 217/217/217 218/218/218 238/238/238 237/237/237
f 218/218/218 219/219/219 239/239/239 238/238/238
f 219/219/219 220/220/220 240/240/240 239/239/239
f 220/220/220 201/202/202 221/222/222 240/240/240
f 221/222/222 222/221/221 242/402/241 241/384/242
f 222/221/221 223/223/223 243/401/243 242/402/241
f 223/223/223 224/224/224 244/400/244 243/401/243
f 224/224/224 225/225/225 245/399/245 244/400/244
f 225/225/225 226/226/226 246/398/246 245/399/245
f 226/226/226 227/227/227 247/397/247 246/398/246
f 227/227/227 228/228/228 248/396/248 247/397/247
f 228/228/228 229/229/229 249/395/249 248/396/248
f 229/229/229 230/230/230 250/394/250 249/395/249
f 230/230/230 231/231/231 251/393/251 250/394/250
f 231/231/231 232/232/232 252/392/252 251/393/251
f 232/232/232 233/233/233 253/391/253 252/392/252
f 233/233/233 234/234/234 254/390/254 253/391/253
f 234/234/234 235/235/235 255/389/255 254/390/254
f 235/235/235 236/236/236 256/388/256 255/389/255
f 236/236/236 237/237/237 257/387/257 256/388/256
f 237/237/237 238/238/238 258/386/258 257/387/257
f 238/238/238 239/239/239 259/385/259 258/386/258
f 239/239/239 240/240/240 260/383/260 259/385/259
f 240/240/240 221/222/222 241/384/242 260/383/260
f 241/242/242 242/241/241 262/261/261 261/262/262
f 242/241/241 243/243/243 263/263/263 262/261/261
f 243/243/243 244/244/244 264/264/264 263/263/263
f 244/244/244 245/245/245 265/265/265 264/264/264
f 245/245/245 246/246/246 266/266/266 265/265/265
f 246/246/246 247/247/247 267/267/267 266/266/266
f 247/247/247 248/248/248 268/268/268 267/267/267
f 248/248/248 249/249/249 269/269/269 268/268/268
f 249/249/249 250/250/250 270/270/270 269/269/269
f 250/250/250 251/251/251 271/271/271 270/270/270
f 251/251/251 252/252/252 272/272/272 271/271/271
f 252/252/252 253/253/253 273/273/273 272/272/272
f 253/253/253 254/254/254 274/274/274 273/273/273
f 254/254/254 255/255/255 275/275/275 274/274/274
f 255/255/255 256/256/256 276/276/276 275/275/275
f 256/256/256 257/257/257 277/277/277 276/276/276
f 257/257/257 258/258/258 278/278/278 277/277/277
f 258/258/258 259/259/259 279/279/279 278/278/278
f 259/259/259 260/260/260 280/280/280 279/279/279
f 260/260/260 241/242/242 261/262/262 280/280/280
f 261/262/262 262/261/261 282/281/281 281/282/282
f 262/261/261 263/263/263 283/283/283 282/281/281
f 263/263/263 264/264/264 284/284/284 283/283/283
f 264/264/264 265/265/265 285/285/285 284/284/284
f 265/265/265 266/266/266 286/286/286 285/285/285
f 266/266/266 267/267/267 287/287/287 286/286/286
f 267/267/267 268/268/268 288/288/288 287/287/287
f 268/268/268 269/269/269 289/289/289 288/288/288
f 269/269/269 270/270/270 290/290/290 289/289/289
f 270/270/270 271/271/271 291/291/291 290/290/290
f 271/271/271 272/272/272 292/292/292 291/291/291
f 272/272/272 273/273/273 293/293/293 292/292/292
f 273/273/273 274/274/274 294/294/294 293/293/293
f 274/274/274 275/275/275 295/295/295 294/294/294
f 275/275/275 276/276/276 296/296/296 295/295/295
f 276/276/276 277/277/277 297/297/297 296/296/296
f 277/277/277 278/278/278 298/298/298 297/297/297
f 278/278/278 279/279/279 299/299/299 298/298/298
f 279/279/279 280/280/280 300/300/300 299/299/299
f 280/280/280 261/262/262 281/282/282 300/300/300
f 281/282/282 282/281/281 302/301/301 301/302/302
f 282/281/281 283/283/283 303/303/303 302/301/301
f 283/283/283 284/284/284 304/304/304 303/303/303
f 284/284/284 285/285/285 305/305/305 304/304/304
f 285/285/285 286/286/286 306/306/306 305/305/305
f 286/286/286 287/287/287 307/307/307 306/306/306
f 287/287/287 288/288/288 308/308/308 307/307/307
f 288/288/288 289/289/289 309/309/309 308/308/308
f 289/289/289 290/290/290 310/310/310 309/309/309
f 290/290/290 291/291/291 311/311/311 310/310/310
f 291/291/291 292/292/292 312/312/312 311/311/311
f 292/292/292 293/293/293 313/313/313 312/312/312
f 293/293/293 294/294/294 314/314/314 313/313/313
f 294/294/294 295/295/295 315/315/315 314/314/314
f 295/295/295 296/296/296 316/316/316 315/315/315
f 296/296/296 297/297/297 317/317/317 316/316/316
f 297/297/297 298/298/298 318/318/318 317/317/317
f 298/298/298 299/299/299 319/319/319 318/318/318
f 299/299/299 300/300/300 320/320/320 319/319/319
f 300/300/300 281/282/282 301/302/302 320/320/320
f 301/302/302 302/301/301 322/321/321 321/322/322
f 302/301/301 303/303/303 323/323/323 322/321/321
f 303/303/303 304/304/304 324/324/324 323/323/323
f 304/304/304 305/305/305 325/325/325 324/324/324
f 305/305/305 306/306/306 326/326/326 325/325/325
f 306/306/306 307/307/307 327/327/327 326/326/326
f 307/307/307 308/308/308 328/328/328 327/327/327
f 308/308/308 309/309/309 329/329/329 328/328/328
f 309/309/309 310/310/310 330/330/330 329/329/329
f 310/310/310 311/311/311 331/331/331 330/330/330
f 311/311/311 312/312/312 332/332/332 331/331/331
f 312/312/312 313/313/313 333/333/333 332/332/332
f 313/313/313 314/314/314 334/334/334 333/333/333
f 314/314/314 315/315/315 335/335/335 334/334/334
f 315/315/315 316/316/316 336/336/336 335/335/335
f 316/316/316 317/317/317 337/337/337 336/336/336
f 317/317/317 318/318/318 338/338/338 337/337/337
f 318/318/318 319/319/319 339/339/339 338/338/338
f 319/319/319 320/320/320 340/340/340 339/339/339
f 320/320/320 301/302/302 321/322/322 340/340/340
f 321/322/322 322/321/321 342/341/341 341/342/342
f 322/321/321 323/323/323 343/343/343 342/341/341
f 323/323/323 324/324/324 344/344/344 343/343/343
f 324/324/324 325/325/325 345/345/345 344/344/344
f 325/325/325 326/326/326 346/346/346 345/345/345
f 326/326/326 327/327/327 347/347/347 346/346/346
f 327/327/327 328/328/328 348/348/348 347/347/347
f 328/328/328 329/329/329 349/349/349 348/348/348
f 329/329/329 330/330/330 350/350/350 349/349/349
f 330/330/330 331/331/331 351/351/351 350/350/350
f 331/331/331 332/332/332 352/352/352 351/351/351
f 332/332/332 333/333/333 353/353/353 352/352/352
f 333/333/333 334/334/334 354/354/354 353/353/353
f 334/334/334 335/335/335 355/355/355 354/354/354
f 335/335/335 336/336/336 356/356/356 355/355/355
f 336/336/336 337/337/337 357/357/357 356/356/356
f 337/337/337 338/338/338 358/358/358 357/357/357
f 338/338/338 339/339/339 359/359/359 358/358/358
f 339/339/339 340/340/340 360/360/360 359/359/359
f 340/340/340 321/322/322 341/342/342 360/360/360
f 341/342/342 342/341/341 362/361/361 361/362/362
f 342/341/341 343/343/343 363/363/363 362/361/361
f 343/343/343 344/344/344 364/364/364 363/363/363
f 344/344/344 345/345/345 365/365/365 364/364/364
f 345/345/345 346/346/346 366/366/366 365/365/365
f 346/346/346 347/347/347 367/367/367 366/366/366
f 347/347/347 348/348/348 368/368/368 367/367/367
f 348/348/348 349/349/349 369/369/369 368/368/368
f 349/349/349 350/350/350 370/370/370 369/369/369
f 350/350/350 351/351/351 371/371/371 370/370/370
f 351/351/351 352/352/352 372/372/372 371/371/371
f 352/352/352 353/353/353 373/373/373 372/372/372
f 353/353/353 354/354/354 374/374/374 373/373/373
f 354/354/354 355/355/355 375/375/375 374/374/374
f 355/355/355 356/356/356 376/376/376 375/375/375
f 356/356/356 357/357/357 377/377/377 376/376/376
f 357/357/357 358/358/358 378/378/378 377/377/377
f 358/358/358 359/359/359 379/379/379 378/378/378
f 359/359/359 360/360/360 380/380/380 379/379/379
f 360/360/360 341/342/342 361/362/362 380/380/380
f 2/2/2 1/1/1 381/381/381
f 3/5/5 2/2/2 381/381/381
f 4/7/7 3/5/5 381/381/381
f 5/9/9 4/7/7 381/381/381
f 6/11/11 5/9/9 381/381/381
f 7/13/13 6/11/11 381/381/381
f 8/15/15 7/13/13 381/381/381
f 9/17/17 8/15/15 381/381/381
f 10/19/19 9/17/17 381/381/381
f 11/21/21 10/19/19 381/381/381
f 12/23/23 11/21/21 381/381/381
f 13/25/25 12/23/23 381/381/381
f 14/27/27 13/25/25 381/381/381
f 15/29/29 14/27/27 381/381/381
f 16/31/31 15/29/29 381/381/381
f 17/33/33 16/31/31 381/381/381
f 18/35/35 17/33/33 381/381/381
f 19/37/37 18/35/35 381/381/381
f 20/39/39 19/37/37 381/381/381
f 1/1/1 20/39/39 381/381/381
f 361/362/362 362/361/361 382/382/382
f 362/361/361 363/363/363 382/382/382
f 363/363/363 364/364/364 382/382/382
f 364/364/364 365/365/365 382/382/382
f 365/365/365 366/366/366 382/382/382
f 366/366/366 367/367/367 382/382/382
f 367/367/367 368/368/368 382/382/382
f 368/368/368 369/369/369 382/382/382
f 369/369/369 370/370/370 382/382/382
f 370/370/370 371/371/371 382/382/382
f 371/371/371 372/372/372 382/382/382
f 372/372/372 373/373/373 382/382/382
f 373/373/373 374/374/374 382/382/382
f 374/374/374 375/375/375 382/382/382
f 375/375/375 376/376/376 382/382/382
f 376/376/376 377/377/377 382/382/382
f 377/377/377 378/378/378 382/382/382
f 378/378/378 379/379/379 382/382/382
f 379/379/379 380/380/380 382/382/382
f 380/380/380 361/362/362 382/382/382
