# This file uses centimeters as units for non-parametric coordinates.

mtllib Eyebrow_L.mtl
g default
v 0.030018 1.446839 0.233674
v 0.210942 1.460627 0.069443
v 0.213519 1.494590 0.063518
v 0.031250 1.491030 0.255278
v 0.181501 1.461882 0.143805
v 0.183363 1.500450 0.138120
v 0.104921 1.442182 0.201540
v 0.112539 1.496904 0.216141
vt 0.586468 0.497723
vt 0.591595 0.554534
vt 0.699268 0.555532
vt 0.696712 0.496990
vt 0.823726 0.556686
vt 0.931604 0.557686
vt 0.934596 0.495409
vt 0.824142 0.496143
vn 0.391577 -0.346971 0.852219
vn 0.544490 -0.248995 0.800957
vn 0.550399 -0.244751 0.798222
vn 0.391577 -0.346971 0.852220
vn 0.806775 -0.080387 0.585365
vn 0.778288 -0.095154 0.620656
vn 0.928491 0.002603 0.371345
vn 0.928491 0.002603 0.371345
s 1
g Eyebrow_L
usemtl lambert10SG
f 1/1/1 7/4/2 8/3/3 4/2/4
f 6/5/5 5/8/6 2/7/7 3/6/8
f 8/3/3 7/4/2 5/8/6 6/5/5
